<svg xmlns="http://www.w3.org/2000/svg" width="900" height="560" viewBox="0 0 900 560" role="img" aria-labelledby="title desc">
<title id="title">Sistema de Árvore AVL</title>
<desc id="desc">Representação visual de uma aplicação de árvore AVL.</desc>
<defs><linearGradient id="g" x1="0" y1="0" x2="1" y2="1"><stop stop-color="#38bdf8"/><stop offset="1" stop-color="#8b5cf6"/></linearGradient></defs>
<rect width="900" height="560" fill="#0f172a"/>
<rect x="48" y="48" width="804" height="464" rx="34" fill="#111827" stroke="#334155" stroke-width="3"/>
<rect x="48" y="48" width="804" height="72" rx="34" fill="#1e293b"/>
<circle cx="88" cy="84" r="10" fill="#ef4444"/><circle cx="122" cy="84" r="10" fill="#f59e0b"/><circle cx="156" cy="84" r="10" fill="#22c55e"/>
<text x="205" y="94" fill="#e5e7eb" font-family="Arial" font-size="24" font-weight="700">Sistema de Árvore AVL</text>
<line x1="450" y1="188" x2="290" y2="292" stroke="#64748b" stroke-width="8" stroke-linecap="round"/>
<line x1="450" y1="188" x2="610" y2="292" stroke="#64748b" stroke-width="8" stroke-linecap="round"/>
<line x1="290" y1="292" x2="210" y2="398" stroke="#64748b" stroke-width="8" stroke-linecap="round"/>
<line x1="290" y1="292" x2="370" y2="398" stroke="#64748b" stroke-width="8" stroke-linecap="round"/>
<line x1="610" y1="292" x2="530" y2="398" stroke="#64748b" stroke-width="8" stroke-linecap="round"/>
<line x1="610" y1="292" x2="690" y2="398" stroke="#64748b" stroke-width="8" stroke-linecap="round"/>
<g font-family="Arial" font-size="28" font-weight="700" text-anchor="middle" dominant-baseline="middle">
<circle cx="450" cy="188" r="48" fill="url(#g)"/><text x="450" y="188" fill="white">30</text>
<circle cx="290" cy="292" r="44" fill="#1d4ed8"/><text x="290" y="292" fill="white">20</text>
<circle cx="610" cy="292" r="44" fill="#7c3aed"/><text x="610" y="292" fill="white">40</text>
<circle cx="210" cy="398" r="39" fill="#0369a1"/><text x="210" y="398" fill="white">10</text>
<circle cx="370" cy="398" r="39" fill="#0369a1"/><text x="370" y="398" fill="white">25</text>
<circle cx="530" cy="398" r="39" fill="#6d28d9"/><text x="530" y="398" fill="white">35</text>
<circle cx="690" cy="398" r="39" fill="#6d28d9"/><text x="690" y="398" fill="white">50</text>
</g>
<text x="80" y="482" fill="#94a3b8" font-family="Arial" font-size="22">Inserção • Remoção • Busca • Balanceamento</text>
</svg>
