<svg xmlns="http://www.w3.org/2000/svg" width="900" height="560" viewBox="0 0 900 560" role="img" aria-labelledby="title desc">
<title id="title">Landing Page Responsiva</title>
<desc id="desc">Representação visual de uma página web responsiva.</desc>
<defs><linearGradient id="g" x1="0" y1="0" x2="1" y2="1"><stop stop-color="#38bdf8"/><stop offset="1" stop-color="#8b5cf6"/></linearGradient></defs>
<rect width="900" height="560" fill="#0f172a"/>
<rect x="70" y="54" width="760" height="452" rx="34" fill="#111827" stroke="#334155" stroke-width="3"/>
<rect x="108" y="96" width="684" height="62" rx="18" fill="#1e293b"/>
<rect x="132" y="116" width="118" height="22" rx="11" fill="url(#g)"/>
<rect x="562" y="118" width="58" height="18" rx="9" fill="#64748b"/><rect x="640" y="118" width="58" height="18" rx="9" fill="#64748b"/><rect x="718" y="118" width="50" height="18" rx="9" fill="#38bdf8"/>
<rect x="132" y="202" width="290" height="34" rx="17" fill="#e5e7eb"/>
<rect x="132" y="250" width="220" height="18" rx="9" fill="#94a3b8"/>
<rect x="132" y="282" width="270" height="18" rx="9" fill="#64748b"/>
<rect x="132" y="332" width="132" height="42" rx="21" fill="url(#g)"/>
<rect x="500" y="198" width="238" height="174" rx="26" fill="url(#g)" opacity="0.95"/>
<rect x="528" y="226" width="182" height="22" rx="11" fill="rgba(255,255,255,.75)"/>
<rect x="528" y="266" width="92" height="22" rx="11" fill="rgba(255,255,255,.45)"/>
<rect x="528" y="306" width="154" height="22" rx="11" fill="rgba(255,255,255,.55)"/>
<rect x="132" y="414" width="176" height="54" rx="18" fill="#1e293b" stroke="#334155"/>
<rect x="356" y="414" width="176" height="54" rx="18" fill="#1e293b" stroke="#334155"/>
<rect x="580" y="414" width="176" height="54" rx="18" fill="#1e293b" stroke="#334155"/>
<text x="132" y="494" fill="#94a3b8" font-family="Arial" font-size="22">HTML • CSS • JavaScript • Responsivo</text>
</svg>
